<svg id="Capa_1" enable-background="new 0 0 512 512" height="512" viewBox="0 0 512 512" width="512" xmlns="http://www.w3.org/2000/svg" xmlns:xlink="http://www.w3.org/1999/xlink">
    <linearGradient id="lg1">
        <stop offset="0" stop-color="#43386b" />
        <stop offset="1" stop-color="#7662bd" />
    </linearGradient>
    <linearGradient id="SVGID_1_" gradientUnits="userSpaceOnUse" x1="198.399" x2="151.96" xlink:href="#lg1" y1="378.853" y2="298.418" />
    <linearGradient id="lg2">
        <stop offset="0" stop-color="#d5c9f1" />
        <stop offset="1" stop-color="#f2effa" />
    </linearGradient>
    <linearGradient id="SVGID_2_" gradientUnits="userSpaceOnUse" x1="125.074" x2="125.074" xlink:href="#lg2" y1="468.553" y2="309.909" />
    <linearGradient id="SVGID_3_" gradientUnits="userSpaceOnUse" x1="106.557" x2="106.557" y1="441.369" y2="309.532">
        <stop offset="0" stop-color="#a996eb" />
        <stop offset="1" stop-color="#d7d1eb" />
    </linearGradient>
    <linearGradient id="SVGID_4_" gradientUnits="userSpaceOnUse" x1="386.926" x2="386.926" xlink:href="#lg2" y1="316.593" y2="157.949" />
    <linearGradient id="SVGID_5_" gradientUnits="userSpaceOnUse" x1="402.807" x2="356.368" xlink:href="#lg1" y1="260.675" y2="180.24" />
    <linearGradient id="SVGID_6_" gradientUnits="userSpaceOnUse" x1="293.594" x2="390.508" xlink:href="#lg1" y1="252.378" y2="252.378" />
    <linearGradient id="SVGID_7_" gradientUnits="userSpaceOnUse" x1="234.02" x2="276.137" xlink:href="#lg1" y1="180.665" y2="107.716" />
    <g>
        <g>
            <path d="m403.277 474.303c-5.791 0-11.424-3.005-14.527-8.381-4.628-8.015-1.881-18.264 6.133-22.891l32.007-18.479c8.014-4.626 18.263-1.882 22.891 6.134 4.628 8.015 1.881 18.264-6.133 22.891l-32.007 18.479c-2.64 1.522-5.521 2.247-8.364 2.247z" fill="#43386b" />
        </g>
        <g>
            <path d="m249.133 396.065c0-57.352-34.869-123.976-77.883-148.81-21.624-12.484-39.912-11.58-55.298-1.202l-33.343 19.251 105.345 213.562 36.157-20.993c15.385-10.087 25.022-31.663 25.022-61.808z" fill="url(#SVGID_1_)" />
            <ellipse cx="137.642" cy="370.557" fill="#a996eb" rx="67.643" ry="119.565" transform="matrix(.92 -.392 .392 .92 -134.102 83.48)" />
            <path d="m194.806 419.684c0 51.349-31.22 74.951-69.732 52.716s-69.732-81.886-69.732-133.235 31.22-74.951 69.732-52.716c38.512 22.234 69.732 81.886 69.732 133.235z" fill="url(#SVGID_2_)" />
            <path d="m148.048 411.571c0 30.553-18.576 44.596-41.491 31.367-22.915-13.23-41.491-48.723-41.491-79.276s18.576-44.596 41.491-31.367c22.915 13.23 41.491 48.723 41.491 79.276z" fill="url(#SVGID_3_)" />
        </g>
        <g>
            <path d="m456.658 267.724c0 51.349-31.22 74.951-69.732 52.716s-69.732-81.886-69.732-133.235 31.22-74.951 69.732-52.716c38.512 22.234 69.732 81.885 69.732 133.235z" fill="url(#SVGID_4_)" />
            <path d="m453.542 277.887c0-57.352-34.87-123.976-77.883-148.81-21.624-12.484-39.912-11.58-55.299-1.202l-33.343 19.251 105.345 213.562 32.451-18.842c1.269-.646 2.505-1.364 3.706-2.151 15.386-10.087 25.023-31.663 25.023-61.808z" fill="url(#SVGID_5_)" />
            <ellipse cx="342.051" cy="252.378" fill="#a996eb" rx="67.643" ry="119.565" transform="matrix(.92 -.392 .392 .92 -71.509 154.081)" />
            <path d="m390.508 280.355c0 35.683-21.695 52.083-48.457 36.633-26.762-15.451-48.457-56.903-48.457-92.586 0-35.682 21.695-52.083 48.457-36.632 26.762 15.45 48.457 56.902 48.457 92.585z" fill="url(#SVGID_6_)" />
        </g>
        <path d="m362.615 48.12c.548.078.846.121.846.121l-6.868-3.965s-.001-.001-.002-.001c0 0-.001-.001-.002-.001 0 0-64.068-36.63-65.607-36.834-23.444-10.921-50.243-9.82-73.003 3.32-64.394 37.178-104.396 106.464-104.396 180.819v56.902c9.325.119 19.578 3.128 30.342 9.342 10.203 5.891 19.937 14.155 28.867 24.067v.204l15.64-9.03v-47.97c0-68.785 37.006-132.881 96.576-167.274 9.07-5.237 18.941-8.086 28.885-8.564 4.887 9.089 7.546 19.407 7.546 30.267v48.477c9.212.203 19.317 3.208 29.919 9.329 10.364 5.984 20.246 14.412 29.29 24.533v.225l15.64-9.03v-40.02c.003-26.301-12.464-50.078-33.673-64.917z" fill="url(#SVGID_7_)" />
        <path d="m188.434 273.063v-47.97c0-68.785 37.006-132.881 96.576-167.274 19.962-11.525 43.797-11.526 63.761 0 19.962 11.525 31.879 32.168 31.879 55.218v49.05l15.64-9.03v-40.02c0-28.705-14.842-54.41-39.7-68.763-24.861-14.353-54.542-14.352-79.401 0-64.394 37.178-104.396 106.464-104.396 180.819v57z" fill="#a996eb" />
        <g>
            <path d="m314.005 512c-6.803 0-13.607-1.752-19.676-5.255l-74.661-43.106c-3.74-2.16-5.022-6.942-2.862-10.683s6.943-5.022 10.682-2.862l74.662 43.106c7.315 4.223 16.401 4.221 23.711 0l66.52-38.405c3.742-2.159 8.524-.878 10.683 2.862s.877 8.523-2.863 10.683l-66.52 38.405c-6.068 3.503-12.871 5.255-19.676 5.255z" fill="#a996eb" />
        </g>
    </g>
</svg>